<svg xmlns="http://www.w3.org/2000/svg" viewBox="0 0 320 240" role="img" aria-labelledby="title desc">
  <title id="title">Family progress team</title>
  <desc id="desc">A caregiver and child smile beside a colorful progress board with stars and notes.</desc>
  <defs>
    <linearGradient id="bg" x1="0%" y1="0%" x2="100%" y2="100%">
      <stop offset="0%" stop-color="#6FEFFF"/>
      <stop offset="44%" stop-color="#FFE56B"/>
      <stop offset="100%" stop-color="#FF90B8"/>
    </linearGradient>
    <linearGradient id="card" x1="0%" y1="0%" x2="100%" y2="100%">
      <stop offset="0%" stop-color="#FFFFFF"/>
      <stop offset="100%" stop-color="#E8FAFF"/>
    </linearGradient>
    <filter id="shadow" x="-20%" y="-20%" width="140%" height="150%">
      <feDropShadow dx="0" dy="8" stdDeviation="6" flood-color="#1B4B67" flood-opacity="0.18"/>
    </filter>
  </defs>

  <rect width="320" height="240" rx="8" fill="url(#bg)"/>
  <path d="M0 166c40-18 81-27 122-27 50 0 101 13 152 13 15 0 31-1 46-4v92H0Z" fill="#F5FEFF" opacity="0.96"/>
  <path d="M0 190c52 11 103 17 154 17 62 0 118-9 166-25v58H0Z" fill="#59D96D"/>

  <g filter="url(#shadow)">
    <rect x="176" y="48" width="103" height="106" rx="8" fill="url(#card)"/>
    <rect x="188" y="64" width="79" height="60" rx="8" fill="#E8FAFF"/>
    <path d="M197 112h61" fill="none" stroke="#4A95FF" stroke-width="7" stroke-linecap="round"/>
    <path d="M199 83h34" fill="none" stroke="#59D96D" stroke-width="8" stroke-linecap="round"/>
    <path d="M199 97h49" fill="none" stroke="#FF7AA4" stroke-width="8" stroke-linecap="round"/>
    <path d="M247 83 252 95 266 97 256 106 258 120 247 113 236 120 238 106 228 97 242 95Z" fill="#FFE86A"/>
    <circle cx="261" cy="138" r="10" fill="#4A95FF"/>
    <circle cx="233" cy="138" r="10" fill="#59D96D"/>
  </g>

  <g filter="url(#shadow)">
    <circle cx="102" cy="111" r="31" fill="#F6D0B4"/>
    <path d="M73 109c2-25 20-44 43-44 14 0 26 6 35 17-18 2-30 5-41 12-11 7-20 11-37 15Z" fill="#7E4D31"/>
    <circle cx="94" cy="115" r="8" fill="#FFFFFF"/>
    <circle cx="114" cy="115" r="8" fill="#FFFFFF"/>
    <circle cx="95" cy="116" r="3.5" fill="#20342D"/>
    <circle cx="115" cy="116" r="3.5" fill="#20342D"/>
    <path d="M96 132c6 7 13 7 20 0" fill="none" stroke="#D96980" stroke-width="4" stroke-linecap="round"/>
    <path d="M74 150c10-7 22-11 35-11 18 0 35 6 47 18v50H66Z" fill="#43B4FF"/>
  </g>

  <g filter="url(#shadow)">
    <circle cx="66" cy="152" r="23" fill="#FFD5B9"/>
    <path d="M46 151c2-19 15-33 33-33 11 0 20 5 26 13-11 2-19 6-25 12-9 6-18 8-34 8Z" fill="#2B2E73"/>
    <circle cx="59" cy="155" r="6.5" fill="#FFFFFF"/>
    <circle cx="74" cy="155" r="6.5" fill="#FFFFFF"/>
    <circle cx="60" cy="156" r="2.8" fill="#20342D"/>
    <circle cx="75" cy="156" r="2.8" fill="#20342D"/>
    <path d="M61 169c4 5 9 5 14 0" fill="none" stroke="#D96980" stroke-width="4" stroke-linecap="round"/>
    <path d="M45 180c7-6 16-8 25-8 13 0 24 4 33 13v22H39Z" fill="#FFBE3D"/>
  </g>

  <path d="M126 163c14-7 26-8 37-5 8 2 16 7 24 15" fill="none" stroke="#F6D0B4" stroke-width="8" stroke-linecap="round"/>
  <path d="M120 173c18 1 31 1 40 0" fill="none" stroke="#FFD5B9" stroke-width="8" stroke-linecap="round"/>
  <path d="M157 166c7-8 14-11 21-11 7 0 13 4 19 13" fill="none" stroke="#FFD5B9" stroke-width="8" stroke-linecap="round"/>
  <path d="M47 47c18-12 39-18 61-18s43 6 61 18" fill="none" stroke="#FF7AA4" stroke-width="13" stroke-linecap="round" opacity="0.95"/>
  <path d="M64 47c14-8 29-12 44-12 16 0 31 4 44 12" fill="none" stroke="#FFE86A" stroke-width="11" stroke-linecap="round" opacity="0.95"/>
  <circle cx="40" cy="65" r="9" fill="#4A95FF"/>
  <circle cx="281" cy="43" r="9" fill="#59D96D"/>
  <circle cx="285" cy="88" r="7" fill="#FF7AA4"/>
</svg>
