<svg xmlns="http://www.w3.org/2000/svg" viewBox="0 0 260 160" role="img" aria-labelledby="title desc">
  <title id="title">Music rainbow</title>
  <desc id="desc">A playful rainbow with music notes and bright dots.</desc>
  <rect width="260" height="160" rx="8" fill="#E8FBFF"/>
  <path d="M42 116c26-50 59-75 98-75s72 25 98 75" fill="none" stroke="#FF6F85" stroke-width="16" stroke-linecap="round"/>
  <path d="M65 116c21-35 46-52 75-52s54 17 75 52" fill="none" stroke="#FFBE3D" stroke-width="14" stroke-linecap="round"/>
  <path d="M89 116c15-20 32-30 51-30s36 10 51 30" fill="none" stroke="#5CCB7A" stroke-width="12" stroke-linecap="round"/>
  <path d="M111 116c9-8 19-12 29-12s20 4 29 12" fill="none" stroke="#4AA8FF" stroke-width="10" stroke-linecap="round"/>
  <circle cx="47" cy="44" r="12" fill="#FFBE3D"/>
  <circle cx="213" cy="43" r="12" fill="#27B8A8"/>
  <circle cx="226" cy="84" r="8" fill="#FF6F85"/>
  <circle cx="35" cy="87" r="8" fill="#4AA8FF"/>
  <path d="M189 102V47h12v42c8-2 16 1 19 8 4 8-2 17-13 20-10 3-19 0-22-7-1-4 0-7 4-8Z" fill="#20342D"/>
  <path d="M72 101V59h11v32c7-1 14 2 17 8 3 7-3 15-12 18-9 2-17 0-20-7-1-4 0-7 4-9Z" fill="#20342D"/>
</svg>
