<svg xmlns="http://www.w3.org/2000/svg" viewBox="0 0 320 220" role="img" aria-labelledby="title desc">
  <title id="title">Play stage parade</title>
  <desc id="desc">Three smiling friends cheer under stars and music notes in a bright play scene.</desc>
  <defs>
    <linearGradient id="bg" x1="0%" y1="0%" x2="100%" y2="100%">
      <stop offset="0%" stop-color="#77F0FF"/>
      <stop offset="52%" stop-color="#FFE86B"/>
      <stop offset="100%" stop-color="#FF8FB8"/>
    </linearGradient>
    <linearGradient id="stage" x1="0%" y1="0%" x2="100%" y2="0%">
      <stop offset="0%" stop-color="#5DD86E"/>
      <stop offset="100%" stop-color="#39B6FF"/>
    </linearGradient>
    <filter id="shadow" x="-20%" y="-20%" width="140%" height="150%">
      <feDropShadow dx="0" dy="8" stdDeviation="6" flood-color="#184866" flood-opacity="0.18"/>
    </filter>
  </defs>

  <rect width="320" height="220" rx="8" fill="url(#bg)"/>
  <path d="M0 152c45-18 82-27 111-27 43 0 79 18 117 18 28 0 59-8 92-25v102H0Z" fill="#F7FEFF" opacity="0.95"/>
  <path d="M0 172c45 14 93 21 143 21 61 0 119-10 177-29v56H0Z" fill="url(#stage)"/>

  <g opacity="0.94">
    <path d="M47 80c18-32 41-48 68-48s50 16 68 48" fill="none" stroke="#FF7399" stroke-width="13" stroke-linecap="round"/>
    <path d="M63 80c14-21 31-32 52-32s38 11 52 32" fill="none" stroke="#FFE86A" stroke-width="11" stroke-linecap="round"/>
    <path d="M82 80c10-12 21-18 33-18s23 6 33 18" fill="none" stroke="#67D96B" stroke-width="9" stroke-linecap="round"/>
  </g>

  <g filter="url(#shadow)">
    <circle cx="88" cy="113" r="24" fill="#F7D2B5"/>
    <path d="M67 112c0-20 16-35 35-35 11 0 22 4 30 13-14 3-24 8-32 16-11-1-20 1-33 6Z" fill="#6B4A2B"/>
    <circle cx="80" cy="117" r="6.8" fill="#FFFFFF"/>
    <circle cx="96" cy="117" r="6.8" fill="#FFFFFF"/>
    <circle cx="81" cy="118" r="3" fill="#20342D"/>
    <circle cx="97" cy="118" r="3" fill="#20342D"/>
    <path d="M82 130c5 5 10 5 15 0" fill="none" stroke="#D96980" stroke-width="4" stroke-linecap="round"/>
    <path d="M63 141c8-5 18-8 29-8 14 0 27 4 36 14v29H57Z" fill="#59D96D"/>
    <path d="M69 154a18 18 0 0 1 13-8" fill="none" stroke="#FFCF42" stroke-width="9" stroke-linecap="round"/>
    <path d="M106 154a18 18 0 0 0-13-8" fill="none" stroke="#FFCF42" stroke-width="9" stroke-linecap="round"/>
    <circle cx="66" cy="158" r="7.5" fill="#2A8BFF"/>
    <circle cx="109" cy="158" r="7.5" fill="#2A8BFF"/>
  </g>

  <g filter="url(#shadow)">
    <circle cx="158" cy="104" r="25" fill="#FFD5B9"/>
    <path d="M135 101c4-18 17-33 34-33 12 0 24 7 29 18-13 0-22 2-32 9-10 6-18 9-31 6Z" fill="#31449F"/>
    <circle cx="150" cy="108" r="7" fill="#FFFFFF"/>
    <circle cx="167" cy="108" r="7" fill="#FFFFFF"/>
    <circle cx="151" cy="109" r="3" fill="#20342D"/>
    <circle cx="168" cy="109" r="3" fill="#20342D"/>
    <path d="M152 123c5 6 10 6 15 0" fill="none" stroke="#D96980" stroke-width="4" stroke-linecap="round"/>
    <path d="M132 132c8-5 17-8 29-8 15 0 27 5 37 15v37h-74Z" fill="#43B4FF"/>
    <circle cx="135" cy="175" r="22" fill="#4A95FF"/>
    <circle cx="135" cy="175" r="11" fill="#E8F8FF"/>
    <circle cx="186" cy="175" r="15" fill="#4A95FF"/>
    <circle cx="186" cy="175" r="7" fill="#E8F8FF"/>
    <path d="M124 145h48c13 0 23 10 24 24h-74c0-16 8-24 24-24Z" fill="#FFFFFF"/>
  </g>

  <g filter="url(#shadow)">
    <circle cx="236" cy="116" r="24" fill="#F7D2B5"/>
    <path d="M214 114c1-20 17-35 36-35 10 0 19 3 28 11-11 3-20 10-26 19-10-2-20-1-38 5Z" fill="#8F3E5E"/>
    <circle cx="228" cy="120" r="6.8" fill="#FFFFFF"/>
    <circle cx="244" cy="120" r="6.8" fill="#FFFFFF"/>
    <circle cx="229" cy="121" r="3" fill="#20342D"/>
    <circle cx="245" cy="121" r="3" fill="#20342D"/>
    <path d="M231 134c5 6 10 6 15 0" fill="none" stroke="#D96980" stroke-width="4" stroke-linecap="round"/>
    <path d="M210 145c8-6 18-8 29-8 15 0 28 5 38 16v23h-74Z" fill="#FFBE3D"/>
    <rect x="240" y="147" width="42" height="30" rx="8" fill="#4A95FF"/>
    <rect x="247" y="153" width="28" height="18" rx="8" fill="#F1FDFF"/>
    <path d="M252 162h8m8 0h2" stroke="#FF7AA4" stroke-width="4" stroke-linecap="round"/>
  </g>

  <path d="M262 100V57h8v32c5-1 10 1 13 6 2 6-2 12-9 15-7 2-13 0-15-5-1-3 0-5 3-6Z" fill="#20342D"/>
  <path d="M34 103V67h7v25c5-1 9 1 11 5 3 5-1 11-8 13-7 2-12 0-14-5-1-2 0-4 4-5Z" fill="#20342D"/>
  <path d="M156 33 163 48 179 50 167 61 170 77 156 69 142 77 145 61 133 50 149 48Z" fill="#FFE86A"/>
  <circle cx="36" cy="38" r="9" fill="#5BD86C"/>
  <circle cx="285" cy="42" r="8" fill="#4A95FF"/>
  <circle cx="287" cy="86" r="6" fill="#FF7AA4"/>
</svg>
