<svg xmlns="http://www.w3.org/2000/svg" viewBox="0 0 120 120" role="img" aria-labelledby="title desc">
  <title id="title">Melon buddy</title>
  <desc id="desc">A smiling watermelon buddy.</desc>
  <rect width="120" height="120" rx="8" fill="#E8FBFF"/>
  <circle cx="60" cy="57" r="36" fill="#64D77B"/>
  <path d="M24 57a36 36 0 0 0 72 0Z" fill="#FF6F85"/>
  <path d="M34 58a26 26 0 0 0 52 0Z" fill="#FF95A5"/>
  <circle cx="47" cy="48" r="4" fill="#20342D"/>
  <circle cx="73" cy="48" r="4" fill="#20342D"/>
  <path d="M47 66c8 8 18 8 26 0" fill="none" stroke="#20342D" stroke-width="5" stroke-linecap="round"/>
  <path d="M60 17 66 30 80 32 70 42 72 56 60 49 48 56 50 42 40 32 54 30Z" fill="#FFE066"/>
  <circle cx="26" cy="90" r="7" fill="#4AA8FF"/>
  <circle cx="94" cy="89" r="7" fill="#FFBE3D"/>
</svg>
