<svg xmlns="http://www.w3.org/2000/svg" viewBox="0 0 120 120" role="img" aria-labelledby="title desc">
  <title id="title">Glossy melon buddy</title>
  <desc id="desc">A bright smiling melon friend with big eyes and a shiny star.</desc>
  <defs>
    <linearGradient id="bg" x1="0%" y1="0%" x2="100%" y2="100%">
      <stop offset="0%" stop-color="#74F0FF"/>
      <stop offset="50%" stop-color="#FFE56B"/>
      <stop offset="100%" stop-color="#FF8DB6"/>
    </linearGradient>
    <linearGradient id="melonTop" x1="0%" y1="0%" x2="100%" y2="100%">
      <stop offset="0%" stop-color="#8FFF81"/>
      <stop offset="100%" stop-color="#42C75D"/>
    </linearGradient>
    <linearGradient id="melonBottom" x1="0%" y1="0%" x2="100%" y2="100%">
      <stop offset="0%" stop-color="#FF8BB1"/>
      <stop offset="100%" stop-color="#FF5F87"/>
    </linearGradient>
    <filter id="shadow" x="-20%" y="-20%" width="140%" height="150%">
      <feDropShadow dx="0" dy="7" stdDeviation="5" flood-color="#194865" flood-opacity="0.18"/>
    </filter>
  </defs>
  <rect width="120" height="120" rx="8" fill="url(#bg)"/>
  <g filter="url(#shadow)">
    <circle cx="60" cy="60" r="38" fill="url(#melonTop)"/>
    <path d="M22 60a38 38 0 0 0 76 0Z" fill="url(#melonBottom)"/>
    <path d="M31 60a29 29 0 0 0 58 0Z" fill="#FFB1C5" opacity="0.92"/>
    <path d="M40 34c6-8 15-13 26-13 10 0 19 3 27 10-8 1-14 3-20 7-11-4-21-3-33-4Z" fill="#2E8751"/>
    <ellipse cx="50" cy="50" rx="10" ry="12" fill="#FFFFFF"/>
    <ellipse cx="72" cy="50" rx="10" ry="12" fill="#FFFFFF"/>
    <circle cx="52" cy="52" r="4" fill="#20342D"/>
    <circle cx="74" cy="52" r="4" fill="#20342D"/>
    <circle cx="54" cy="50" r="1.5" fill="#FFFFFF"/>
    <circle cx="76" cy="50" r="1.5" fill="#FFFFFF"/>
    <path d="M49 71c7 8 16 8 23 0" fill="none" stroke="#20342D" stroke-width="5" stroke-linecap="round"/>
    <path d="M36 40c10-7 22-10 37-8" fill="none" stroke="#FFFFFF" stroke-width="5" stroke-linecap="round" opacity="0.44"/>
    <path d="M60 15 67 29 82 31 71 42 73 57 60 49 47 57 49 42 38 31 53 29Z" fill="#FFE86A"/>
    <circle cx="25" cy="89" r="8" fill="#4A95FF"/>
    <circle cx="95" cy="90" r="8" fill="#59D96D"/>
  </g>
</svg>
